<svg width="22" height="22" viewBox="0 0 22 22" fill="none" xmlns="http://www.w3.org/2000/svg">
<g id="add_circle_outline_24px">
<path id="icon/content/add_circle_outline_24px" fill-rule="evenodd" clip-rule="evenodd" d="M11 1.83331C5.94004 1.83331 1.83337 5.93998 1.83337 11C1.83337 16.06 5.94004 20.1666 11 20.1666C16.06 20.1666 20.1667 16.06 20.1667 11C20.1667 5.93998 16.06 1.83331 11 1.83331ZM10.0834 6.41665V10.0833H6.41671V11.9166H10.0834V15.5833H11.9167V11.9166H15.5834V10.0833H11.9167V6.41665H10.0834ZM3.66671 11C3.66671 15.0425 6.95754 18.3333 11 18.3333C15.0425 18.3333 18.3334 15.0425 18.3334 11C18.3334 6.95748 15.0425 3.66665 11 3.66665C6.95754 3.66665 3.66671 6.95748 3.66671 11Z" fill="#F2F2F2"/>
</g>
</svg>
