<svg width="26" height="26" viewBox="0 0 26 26" fill="none" xmlns="http://www.w3.org/2000/svg">
<g id="help_24px">
<path id="icon/action/help_24px" fill-rule="evenodd" clip-rule="evenodd" d="M13 2.16669C7.01996 2.16669 2.16663 7.02002 2.16663 13C2.16663 18.98 7.01996 23.8334 13 23.8334C18.98 23.8334 23.8333 18.98 23.8333 13C23.8333 7.02002 18.98 2.16669 13 2.16669ZM11.9166 20.5834V18.4167H14.0833V20.5834H11.9166ZM15.3508 13.1842L16.3258 12.1875C16.9433 11.57 17.3333 10.7034 17.3333 9.75002C17.3333 7.35585 15.3941 5.41669 13 5.41669C10.6058 5.41669 8.66663 7.35585 8.66663 9.75002H10.8333C10.8333 8.55835 11.8083 7.58335 13 7.58335C14.1916 7.58335 15.1666 8.55835 15.1666 9.75002C15.1666 10.3459 14.9283 10.8875 14.5275 11.2775L13.1841 12.6425C12.4041 13.4334 11.9166 14.5167 11.9166 15.7084V16.25H14.0833C14.0833 14.625 14.5708 13.975 15.3508 13.1842Z" fill="black" fill-opacity="0.54"/>
</g>
</svg>
