<?xml version="1.0" encoding="utf-8"?>
<!-- Generator: Adobe Illustrator 21.0.0, SVG Export Plug-In . SVG Version: 6.00 Build 0)  -->
<svg version="1.1" id="Lag_1" xmlns="http://www.w3.org/2000/svg" xmlns:xlink="http://www.w3.org/1999/xlink" x="0px" y="0px"
	 viewBox="0 0 269.3 182.4" style="enable-background:new 0 0 269.3 182.4;" xml:space="preserve">
<style type="text/css">
	.st0{fill:#020203;}
	.st1{fill:#FFFFFF;}
	.st2{fill:#E52629;}
	.st3{fill:#45AD4A;}
	.st4{fill:#26418F;}
</style>
<rect id="Sort" x="0.2" y="134" class="st0" width="269.1" height="48.4"/>
<path id="DK" class="st1" d="M225.3,170.2h2.7V163l3.4-3.2l7.5,10.4h3.5l-9.1-12.3l8.7-8.3h-3.6L228,159.9v-10.3h-2.7V170.2z
	 M192.7,170.2h2.7v-8.8h6.7c2.7,0,3.2,1.7,3.4,3.7c0.4,2,0,4.3,0.8,5.1h3.1c-1.2-1.4-1-3.7-1.2-5.7c-0.2-2-0.7-3.8-3.1-4.3v-0.1
	c2.5-0.7,3.6-2.7,3.6-5.2c0-3.3-2.4-5.4-6.3-5.4h-9.7V170.2z M195.5,159.1v-7.2h6.8c2.6,0,3.7,1.5,3.7,3.5c0,3-2.2,3.7-4.8,3.7
	H195.5z M168.3,152.1L168.3,152.1l3.5,9.6h-7L168.3,152.1z M158.8,170.2h2.8l2.3-6.2h8.7l2.3,6.2h3l-8.1-20.7h-3L158.8,170.2z
	 M123.4,170.2h2.6V153h0.1l6.5,17.2h2.3l6.5-17.2h0.1v17.2h2.6v-20.7h-3.8l-6.5,17.4l-6.5-17.4h-3.8V170.2z M89.7,170.2h2.6v-16.6
	h0.1l10.8,16.6h3v-20.7h-2.6v16.8h-0.1l-10.9-16.8h-2.9V170.2z M59.3,170.2h14.4v-2.3H62v-7.1h10.7v-2.3H62v-6.6h11.5v-2.3H59.3
	V170.2z M29,151.9h4.6c5.1,0,6.9,3,6.9,7.9c0,7.6-5.1,8.1-6.9,8.1H29V151.9z M26.2,170.2h7.1c6.9,0,9.9-3.9,9.9-10.8
	c0-6.7-3.6-9.8-9.9-9.8h-7.1V170.2z"/>
<path id="E" class="st2" d="M223.9,30c0.4-8.6,0.7-23.2,13.2-23.2c9.2,0,11.1,9.3,11.1,17V30H223.9z M269.3,34
	c0-20-13.8-31.3-31.3-31.3c-20.7,0-35.1,14.7-35.1,34.7c0,21.2,14.2,34.7,35.1,34.7c13.9,0,24.7-6.8,30.1-20.3l-3.6-1.6
	c-4.5,9.7-11.6,16.2-23,16.2c-15.4,0-17.6-14.6-17.6-26.6V34H269.3z"/>
<path id="C" class="st3" d="M198,45.8c-3.1-29-20.6-45.6-52.3-45.8c-35.6,0-58.6,24.1-58.6,60.5c0,34.2,21.2,60.5,58.6,60.5
	c33.8,0,52.8-24.8,52.8-48.1h-35c-2.1,10.8-6.8,19.3-18.8,19.3c-16.7,0-22-16.2-22-31.7c0-15.5,5.3-31.7,22-31.7
	c14.7,0,18,12.8,18.6,17H198z"/>
<path id="R" class="st4" d="M0,80.7h25.9c9.7,0,15.7,3.2,15.7,21.4c0,5.3,0.2,12.1,2.3,17.2h42.2c-4.9-5.8-5.5-13.1-7.3-35.9
	c-1-12.5-6.6-18.3-13.9-20.7v-0.3c10.4-2.6,18.5-11,18.5-26.4C83.3,16.6,73,3.7,44.7,3.7H0L0,80.7z M0,29.6h27.7
	c9.4,0,14.4,4.9,14.4,12.5c0,7.9-5,12.8-14.4,12.8H0V29.6z"/>
</svg>
